<svg width="32" height="32" viewBox="0 0 24 24" fill="none" xmlns="http://www.w3.org/2000/svg">
<path d="M3 21.9895H14.1803C14.2691 21.9895 14.341 21.9175 14.341 21.8288V13.0605" stroke="#344054" style="stroke:#344054;stroke-opacity:1;" stroke-width="0.964232"/>
<path d="M5.66406 21.9047V20.0201C5.66406 19.9313 5.73601 19.8594 5.82477 19.8594H8.02829C8.11704 19.8594 8.18899 19.9313 8.18899 20.0201V21.9047" stroke="#344054" style="stroke:#344054;stroke-opacity:1;" stroke-width="0.964232"/>
<path d="M9.75391 21.9189V20.0342C9.75391 19.9455 9.82586 19.8735 9.91461 19.8735H12.1181C12.2069 19.8735 12.2788 19.9455 12.2788 20.0342V21.9189" stroke="#344054" style="stroke:#344054;stroke-opacity:1;" stroke-width="0.964232"/>
<path d="M3.78906 21.9047V16.9451C3.78906 16.8563 3.86101 16.7843 3.94977 16.7843H13.5361M6.92054 15.8675V14.3355C6.92054 14.2467 6.99249 14.1748 7.08125 14.1748H13.5361M5.66211 18.0821H6.9632M14.3684 20.5788L20.9981 14.1748M14.3684 14.1748L20.9981 20.5788M20.9981 22.074V13.1451M14.3684 10.4509V11.2457C14.3684 11.2878 14.3849 11.3281 14.4143 11.3582L17.0026 14.001C17.032 14.031 17.0485 14.0714 17.0485 14.1134V14.804C17.0485 14.8928 17.1204 14.9647 17.2092 14.9647H18.0868C18.1755 14.9647 18.2475 14.8928 18.2475 14.804V14.1146C18.2475 14.0719 18.2645 14.0309 18.2948 14.0007L20.9507 11.3584C20.981 11.3283 20.9981 11.2873 20.9981 11.2445V2.65592C20.9981 2.56716 20.9261 2.49521 20.8374 2.49521H18.6706M14.3684 9.53399V2.65592C14.3684 2.56716 14.4403 2.49521 14.5291 2.49521H16.7523M16.7523 2.49521V1.16071C16.7523 1.07195 16.8242 1 16.913 1H18.5099C18.5987 1 18.6706 1.07195 18.6706 1.16071V2.49521M16.7523 2.49521H18.6706M19.658 3.70521V7.41812M19.658 8.08109V9.3365M7.59054 18.0821H8.89164M9.46544 18.0821H10.7665M11.3403 18.0821H12.6414" stroke="#344054" style="stroke:#344054;stroke-opacity:1;" stroke-width="0.964232"/>
</svg>
