<svg width="32" height="32" viewBox="0 0 24 24" fill="none" xmlns="http://www.w3.org/2000/svg">
<g clip-path="url(#clip0_250_33489)">
<path d="M3.58161 17.8559C3.13058 17.7711 2.66651 17.4082 2.46006 16.9791L2.34596 16.7419H1.18142H0.0168847L0.00844261 14.6392L0 12.5367L0.212083 11.8012C0.547091 10.6394 0.716962 10.0929 0.783222 9.9629C0.860994 9.8103 1.00758 9.68647 1.16019 9.64401C1.23566 9.62303 1.94763 9.61088 3.10487 9.61075C5.07758 9.61062 5.11032 9.61305 5.332 9.78228C5.3925 9.82846 5.48396 9.94179 5.53513 10.0341L5.62825 10.2022L5.62198 11.7772L5.61584 13.3521H5.97976H6.34368L6.35429 11.6652L6.36504 9.97838L6.20681 9.22688C5.96019 8.05454 5.98091 7.6699 6.30939 7.32939C6.4588 7.17436 6.66436 7.0687 6.91801 7.01638C7.12191 6.97417 9.03168 7.0137 12.5676 7.13304C14.9962 7.21503 16.8654 7.27324 18.1479 7.30688C19.979 7.35497 20.1931 7.36533 20.3704 7.41433C20.6182 7.48276 21.8544 7.97191 22.0333 8.07232C22.2396 8.18795 22.4105 8.41449 22.4989 8.68912C22.7351 9.42348 22.274 10.1954 21.4812 10.3936C21.2878 10.4418 20.3199 10.5172 18.1799 10.6503C16.0005 10.786 15.1266 10.8456 12.9833 11.0053C12.5964 11.0341 12.2458 11.0738 12.2042 11.0937C12.1625 11.1135 12.0803 11.2124 12.0212 11.3134L11.9137 11.4974H17.0134H21.8087C21.9769 11.4974 22.1133 11.6337 22.1133 11.8019V11.9069V12.3165L22.7288 12.4652C23.0674 12.547 23.4056 12.6235 23.4804 12.6353C23.5586 12.6477 23.6163 12.7151 23.6163 12.7943V13.3882V14.1196H23.8081C23.9141 14.1196 24 14.2055 24 14.3115V15.4307V16.7419L21.6896 16.7425L19.3791 16.7431L19.2766 16.9583C18.9591 17.6251 18.219 17.9973 17.5083 17.8481C16.988 17.7387 16.5583 17.4119 16.3516 16.9684L16.2461 16.7419H15.9407H15.6353L15.5318 16.952C15.1115 17.8042 14.0033 18.137 13.2127 17.6484C12.9301 17.4738 12.6501 17.1415 12.5498 16.8619L12.5067 16.7419H9.0304H5.55406L5.42665 16.9736C5.06005 17.6406 4.31955 17.9947 3.58161 17.8559ZM4.32608 17.0297C4.51513 16.9483 4.7244 16.7385 4.81445 16.5401C4.89926 16.3535 4.89722 16.0067 4.81023 15.8145C4.72594 15.6279 4.58037 15.4779 4.38108 15.3722C4.24332 15.299 4.18358 15.2875 3.94937 15.2886C3.72002 15.2898 3.65222 15.303 3.51561 15.3738C3.32936 15.4704 3.14274 15.6634 3.06701 15.8378C2.99615 16.001 2.99768 16.3669 3.07008 16.534C3.2869 17.035 3.82235 17.2464 4.32608 17.0297ZM14.3818 17.0556C14.5564 17.0033 14.8159 16.7616 14.9067 16.5666C15.0524 16.2537 14.9896 15.8451 14.7546 15.5782C14.4009 15.1764 13.8207 15.148 13.4168 15.5129C13.2027 15.7064 13.144 15.847 13.144 16.1663C13.1441 16.3988 13.1564 16.4616 13.2296 16.6009C13.4546 17.0295 13.8923 17.2024 14.3818 17.0556ZM18.1851 17.0377C18.6643 16.8258 18.8743 16.2672 18.6483 15.8054C18.3632 15.2225 17.6038 15.0783 17.1458 15.5203C16.8267 15.8283 16.7816 16.2907 17.0326 16.6834C17.2812 17.0724 17.7683 17.2222 18.1851 17.0377ZM2.28648 15.9137C2.28648 15.6101 2.55727 15.1063 2.84265 14.8794C3.35392 14.4728 3.98518 14.3986 4.61542 14.6711L4.87675 14.7841V12.5811V10.3781H4.493H4.10926V12.057V13.6005C4.10926 13.6753 4.04867 13.7359 3.97392 13.7359H3.84141C3.69418 13.7359 3.52866 13.7448 3.47365 13.7558C3.42196 13.7661 3.37375 13.7266 3.37375 13.6739V13.0517V12.3275L3.30186 12.3447C3.26221 12.354 2.84124 12.4535 2.36642 12.5658C1.8916 12.6783 1.33389 12.809 1.12731 12.8565L0.751499 12.9427V13.723V14.5034H1.3243H1.76074C1.83594 14.5034 1.89671 14.5647 1.89608 14.6398L1.89416 14.8671L1.8922 15.11C1.89164 15.1789 1.83944 15.2364 1.77093 15.2435L1.70037 15.2509C1.59548 15.2619 1.33901 15.2708 1.13051 15.2708H0.751499V15.6386V16.0064H1.51899H2.28648V15.9137ZM6.34777 15.063V14.1196H6.00022H5.65268L5.63273 14.2396C5.62185 14.3055 5.61277 14.7223 5.61264 15.1658L5.61226 15.9723L5.97195 15.9824C6.16984 15.9881 6.33536 15.9957 6.33984 15.9994C6.34419 16.0033 6.34777 15.5818 6.34777 15.063ZM10.8568 15.2549V14.5034H9.002H7.14724L7.14698 15.0391C7.14685 15.3337 7.13764 15.6717 7.12639 15.7904L7.10605 16.0064H8.9814H10.8568V15.2549ZM12.4185 15.8005C12.5268 15.2147 13.0038 14.7089 13.5984 14.5493C14.5138 14.3034 15.5132 14.8934 15.6882 15.783L15.7248 15.9693L15.927 15.9798L16.1294 15.9904L16.1625 15.8016C16.2459 15.3274 16.5927 14.8789 17.0418 14.6645C17.1841 14.5967 17.3767 14.5255 17.47 14.5063C17.5809 14.4834 18.2844 14.4714 19.5085 14.4714H21.3777V14.1036V13.7359H20.9687H20.6954C20.6205 13.7359 20.5598 13.675 20.5601 13.6001L20.5609 13.3681L20.5618 13.1352C20.5621 13.0606 20.6226 13.0004 20.6971 13.0004H20.97H21.3777V12.6166V12.2329H16.501H11.6243V14.1173V16.0019L12.0034 15.9982L12.3827 15.9945L12.4185 15.8005ZM21.3777 15.6386V15.2708H20.4229C19.8976 15.2708 19.4003 15.2616 19.3177 15.2503L19.1674 15.2297L19.2783 15.4341C19.3393 15.5466 19.4072 15.7214 19.4292 15.8224L19.4691 16.0064H20.4235H21.3777V15.6386ZM23.2325 15.4307V14.8551H22.6729H22.1133V15.4307V16.0064H22.6729H23.2325V15.4307ZM22.8737 13.6979L22.8648 13.2761L22.513 13.187C22.3196 13.138 22.1505 13.0976 22.1373 13.0971C22.124 13.0967 22.1133 13.3265 22.1133 13.608V14.1196H22.4979H22.8825L22.8737 13.6979ZM10.8568 12.9867V12.2375L10.417 12.239C10.1752 12.2399 9.33598 12.2477 8.55187 12.2564L7.12651 12.2723L7.12191 13.0041L7.11743 13.7359H8.98703H10.8568V12.9867ZM1.23783 12.0587C1.37342 12.0314 1.49213 12.009 1.50159 12.009C1.51118 12.009 1.51899 11.642 1.51899 11.1936C1.51899 10.4381 1.51489 10.3781 1.46296 10.3784C1.41768 10.3786 1.35909 10.5374 1.15354 11.2179C1.01411 11.6794 0.893229 12.0766 0.884786 12.1006C0.874297 12.1311 0.88824 12.1389 0.93058 12.1263C0.963966 12.1165 1.10224 12.086 1.23783 12.0587ZM2.75579 11.7039C3.01661 11.6417 3.26221 11.5838 3.30186 11.5754C3.37324 11.5602 3.37375 11.5562 3.37375 10.9691V10.3781H2.81412H2.2545V11.0976C2.2545 11.4934 2.26064 11.8172 2.26818 11.8172C2.27573 11.8172 2.49523 11.7662 2.75579 11.7039ZM11.2386 11.3615C11.3366 10.8969 11.5288 10.5849 11.8118 10.4312C11.9538 10.3542 12.0452 10.334 12.4173 10.2973C13.1145 10.2284 14.4466 10.1305 16.3251 10.01C17.2837 9.94844 18.6795 9.85583 19.427 9.80416C20.1746 9.75261 20.9481 9.70042 21.146 9.68839C21.3437 9.67624 21.5057 9.65603 21.5057 9.6435C21.5057 9.62009 20.9721 9.60269 18.5157 9.54615C17.2804 9.51788 14.3043 9.43218 12.04 9.35978L11.2885 9.33586L11.0326 9.46147C10.8919 9.53055 10.3674 9.81708 9.86683 10.0981C9.36643 10.3791 8.88074 10.6465 8.78761 10.6921L8.61825 10.7752V11.1359V11.4965L9.6976 11.5053C10.2911 11.5102 10.8728 11.5177 10.9901 11.5218L11.2033 11.5293L11.2386 11.3615ZM7.88275 10.9377V10.3781H7.499H7.11526V10.9377V11.4974H7.499H7.88275V10.9377ZM9.309 9.5624C9.8525 9.2522 9.85724 9.25886 9.09397 9.25886H8.61825V9.61318V9.96763L8.733 9.89677C8.79606 9.85775 9.05534 9.7072 9.309 9.5624ZM7.88275 8.66725V7.72388H7.51704C7.11897 7.72388 7.01702 7.74831 6.88348 7.87584C6.76081 7.99276 6.76605 8.11607 6.92914 8.93114L7.06499 9.61062H7.47393H7.88275V8.66725ZM21.7295 8.80936C21.7295 8.76664 21.542 8.68401 20.7534 8.37957C20.2595 8.18885 20.0735 8.1318 19.9094 8.1208C19.7937 8.11287 19.001 8.08549 18.1479 8.05978C17.2948 8.03407 16.3379 8.00516 16.0213 7.99531C15.7047 7.98559 14.4888 7.94914 13.3191 7.91447C12.1495 7.87968 10.8041 7.83708 10.3291 7.81994C9.85417 7.80255 9.2751 7.78835 9.04191 7.78809L8.61825 7.78784V8.15073V8.5135L9.48961 8.53486C9.96891 8.54663 11.2533 8.57733 12.3438 8.60316C13.4342 8.629 15.1754 8.67326 16.2132 8.7014C17.251 8.72954 18.8411 8.77099 19.7468 8.79325C20.6526 8.81563 21.4692 8.83597 21.5617 8.83853C21.661 8.84121 21.7295 8.82932 21.7295 8.80936Z" fill="#344054" stroke="#344054" style="fill:#344054;fill-opacity:1;stroke:#344054;stroke-opacity:1;" stroke-width="0.0338356"/>
<path d="M12.7422 13.3682V13.1697C12.7422 13.0762 12.8179 13.0005 12.9114 13.0005H15.9221H18.9374C19.0291 13.0005 19.1041 13.0735 19.1065 13.1651L19.112 13.3682L19.1172 13.5624C19.1198 13.6576 19.0433 13.7361 18.9481 13.7361L15.9321 13.736H12.9114C12.8179 13.736 12.7422 13.6603 12.7422 13.5668V13.3682Z" fill="#344054" stroke="#344054" style="fill:#344054;fill-opacity:1;stroke:#344054;stroke-opacity:1;" stroke-width="0.0338356"/>
</g>
<defs>
<clipPath id="clip0_250_33489">
<rect width="24" height="24" fill="white" style="fill:white;fill-opacity:1;"/>
</clipPath>
</defs>
</svg>
