<svg width="32" height="32" viewBox="0 0 24 24" fill="none" xmlns="http://www.w3.org/2000/svg">
<path d="M6.14494 18.0111C6.11629 18.0068 6.03524 17.9958 5.96492 17.9868C5.8946 17.9777 5.82832 17.9657 5.81769 17.96C5.80701 17.9543 5.7731 17.9452 5.74223 17.9397C5.66882 17.9268 5.5482 17.8849 5.4347 17.833C5.41114 17.8222 5.38674 17.8134 5.38048 17.8134C5.36421 17.8134 5.2058 17.7289 5.08133 17.6539C5.01481 17.6137 4.81727 17.4579 4.73385 17.3797C4.55679 17.2136 4.37281 16.9732 4.28772 16.7967C4.26765 16.755 4.24934 16.7243 4.23241 16.704C4.22023 16.6892 4.17969 16.6872 3.89915 16.6871C3.61627 16.6871 3.56989 16.6847 3.4931 16.6662C3.44542 16.6548 3.39741 16.6455 3.38649 16.6455C3.35921 16.6455 3.22327 16.5838 3.11575 16.5227C3.05506 16.4882 2.86636 16.2995 2.83187 16.2388C2.76788 16.1263 2.70911 15.9953 2.70895 15.9648C2.70886 15.952 2.70115 15.9158 2.6918 15.8843C2.67937 15.8424 2.67308 15.7636 2.66845 15.5923L2.66215 15.3577L2.45881 15.3523C2.26657 15.3473 2.25226 15.3455 2.19645 15.3195C2.1175 15.2826 2.06035 15.2215 2.02711 15.1384L2 15.0707V14.0307V12.9906L2.02344 12.9242C2.04075 12.8752 2.06098 12.8437 2.1004 12.8043C2.18282 12.7218 2.22503 12.7102 2.46403 12.7039L2.66215 12.6987V11.4224V10.1462L2.58916 10.0957C2.48884 10.0262 2.39779 9.93736 2.32684 9.83951C2.28738 9.78508 2.21205 9.6343 2.20467 9.59492C2.20079 9.57398 2.18957 9.54112 2.17981 9.52193C2.16471 9.49223 2.16213 9.45411 2.16242 9.268C2.16275 9.06675 2.16467 9.04456 2.18565 8.99388C2.19825 8.96356 2.20855 8.92839 2.20855 8.91567C2.20855 8.90299 2.2176 8.86445 2.2287 8.83004C2.23979 8.79563 2.25389 8.74754 2.25998 8.72314C2.28626 8.61845 2.29502 8.58679 2.31391 8.52764C2.32492 8.49323 2.33389 8.45336 2.33385 8.43901C2.33381 8.42466 2.34081 8.39955 2.34932 8.38316C2.35787 8.36681 2.36938 8.32527 2.37493 8.2909C2.38048 8.25653 2.38966 8.22274 2.39537 8.21586C2.40108 8.20898 2.40872 8.18245 2.4123 8.15697C2.41593 8.1314 2.42594 8.09177 2.43462 8.06883C2.4433 8.04589 2.45431 8.00602 2.45906 7.9802C2.46382 7.95438 2.47454 7.91217 2.48288 7.88635C2.49735 7.84143 2.50786 7.80356 2.53276 7.7065C2.53898 7.6821 2.55249 7.63167 2.56271 7.59438C2.59383 7.4813 2.60576 7.43538 2.61981 7.3754C2.62715 7.34387 2.64058 7.29457 2.64955 7.26591C2.65856 7.23726 2.67095 7.19384 2.67708 7.16944C2.70482 7.05911 2.71187 7.03234 2.72993 6.96873C2.74803 6.90491 2.75579 6.87538 2.78277 6.76802C2.78886 6.74362 2.80296 6.69553 2.81406 6.66112C2.82515 6.6267 2.83424 6.58683 2.83429 6.57248C2.83429 6.55813 2.84129 6.53302 2.84984 6.51663C2.85839 6.50028 2.86974 6.46036 2.87508 6.428C2.88042 6.39563 2.89214 6.35171 2.90119 6.3304C2.91024 6.30904 2.91762 6.28176 2.91762 6.26979C2.91762 6.25774 2.92747 6.21653 2.93944 6.1782C2.98436 6.03484 2.99241 6.00618 3.00108 5.95884C3.00596 5.93219 3.01677 5.88923 3.02511 5.86341C3.03341 5.83759 3.04513 5.79772 3.0511 5.77478C3.06882 5.70691 3.09693 5.63321 3.12246 5.58783C3.1356 5.56447 3.1542 5.53127 3.16375 5.51409C3.21247 5.4265 3.3215 5.30996 3.41852 5.2418C3.52488 5.1671 3.58286 5.13761 3.69969 5.09878C3.86123 5.0451 3.96375 5.04235 6.31178 5.02921C7.25806 5.02395 8.31858 5.01415 8.6684 5.00752C9.24972 4.99646 9.31796 4.99696 9.4609 5.01327C9.54695 5.02308 9.6458 5.04005 9.68063 5.05102C9.71541 5.06195 9.75433 5.07092 9.76705 5.07092C9.77977 5.07092 9.80859 5.0803 9.83107 5.09177C9.85356 5.10324 9.88033 5.11267 9.89064 5.11271C9.90086 5.11275 9.92338 5.1221 9.94056 5.13348C9.95775 5.14487 9.97706 5.15421 9.98344 5.15425C9.99328 5.15434 10.1343 5.23079 10.2007 5.27204C10.2371 5.29469 10.46 5.45352 10.5401 5.51392C10.6448 5.59284 10.9321 5.8021 10.9627 5.8217C10.9761 5.83029 11.0074 5.8529 11.0322 5.87192C11.0569 5.89094 11.1452 5.95509 11.2284 6.01444C11.3115 6.0738 11.4148 6.14891 11.4578 6.18132C11.5008 6.21373 11.604 6.28881 11.6872 6.34816C11.7703 6.40748 11.8736 6.4826 11.9166 6.515C12.0187 6.592 12.3098 6.80414 12.3317 6.81753C12.3411 6.82324 12.3731 6.84673 12.403 6.86967C12.4328 6.89261 12.4839 6.93015 12.5166 6.95309C12.5492 6.97603 12.5874 7.00535 12.6013 7.01828C12.6153 7.03117 12.6313 7.04172 12.6369 7.04172C12.6424 7.04172 12.7062 7.0992 12.7785 7.16944C12.9236 7.31042 13.0446 7.45361 13.1208 7.57465C13.1266 7.58387 13.1448 7.61161 13.1613 7.6363C13.1987 7.69248 13.3243 7.93632 13.3243 7.95271C13.3243 7.95938 13.3337 7.98237 13.3452 8.00376C13.3566 8.02516 13.366 8.04998 13.366 8.05895C13.366 8.06787 13.3748 8.0949 13.3857 8.11893C13.3965 8.14299 13.4087 8.18262 13.4127 8.20693C13.4167 8.23129 13.424 8.25369 13.4289 8.25674C13.4338 8.25974 13.441 8.28439 13.4448 8.3115C13.4487 8.33861 13.4616 8.40068 13.4735 8.44944C13.4931 8.5296 13.4953 8.56948 13.4954 8.86654C13.4956 9.17315 13.4941 9.20072 13.4725 9.28076C13.4598 9.32794 13.4494 9.37761 13.4494 9.39121C13.4494 9.40481 13.44 9.44322 13.4286 9.47655C13.4171 9.50987 13.4077 9.54933 13.4076 9.56418C13.4076 9.57907 13.4006 9.60464 13.3921 9.62103C13.3835 9.63738 13.372 9.67893 13.3665 9.71329C13.3609 9.74766 13.3517 9.78145 13.346 9.78833C13.3403 9.79521 13.3326 9.82174 13.3289 9.84723C13.3253 9.87279 13.3133 9.91847 13.3024 9.94879C13.2915 9.97911 13.2826 10.0149 13.2826 10.0283C13.2826 10.0417 13.2751 10.0706 13.266 10.0924C13.2569 10.1142 13.2455 10.1535 13.2407 10.1797C13.2359 10.2059 13.2252 10.2484 13.2168 10.2743C13.1993 10.3286 13.1823 10.3913 13.1632 10.4724C13.1557 10.5039 13.1426 10.5532 13.134 10.5819C13.1182 10.6343 13.1044 10.6848 13.0837 10.7669C13.0775 10.7913 13.0638 10.8418 13.0532 10.8791C13.0426 10.9163 13.0292 10.9656 13.0234 10.9885C13.0176 11.0115 13.0076 11.0514 13.001 11.0772C12.9945 11.103 12.9801 11.1523 12.9691 11.1867C12.958 11.2211 12.9487 11.2609 12.9485 11.2753C12.9484 11.2896 12.9391 11.3201 12.9281 11.3431C12.917 11.366 12.9077 11.3955 12.9076 11.4086C12.9074 11.4218 12.8978 11.4509 12.8863 11.4734C12.8749 11.4959 12.8655 11.522 12.8655 11.5314C12.8655 11.5407 12.8588 11.5608 12.8506 11.5761C12.8299 11.6144 12.7821 11.721 12.7821 11.7288C12.7821 11.7394 12.6624 11.9433 12.6123 12.018C12.5357 12.1322 12.4153 12.2757 12.3167 12.3702C12.2249 12.4582 12.0596 12.5996 12.0485 12.5996C12.0453 12.5996 12.0211 12.6142 11.9947 12.632C11.9646 12.6524 11.948 12.6708 11.9501 12.6815C11.9531 12.6973 12.0359 12.6987 12.9803 12.6987H14.0073L14.0125 9.82587L14.0177 6.95309L14.0401 6.90095C14.0735 6.82291 14.1521 6.74954 14.2328 6.72105L14.2993 6.69761L16.0615 6.69807C17.0308 6.69832 17.8566 6.70258 17.8968 6.7075C17.9369 6.71242 18.0237 6.7218 18.0897 6.72835C18.1556 6.73486 18.2331 6.7447 18.2617 6.75012C18.2904 6.75559 18.342 6.76514 18.3764 6.77136C18.4108 6.77757 18.4719 6.79171 18.512 6.80276C18.5521 6.81377 18.595 6.82278 18.6073 6.82278C18.6196 6.82274 18.6501 6.832 18.6751 6.84335C18.7001 6.85473 18.7323 6.86424 18.7466 6.86458C18.761 6.86491 18.7915 6.87421 18.8144 6.88531C18.8373 6.8964 18.8642 6.90562 18.8741 6.90583C18.884 6.906 18.9121 6.91505 18.9366 6.92593C18.9612 6.93678 19.007 6.95596 19.0386 6.96856C19.1504 7.01323 19.4493 7.15809 19.513 7.19851C19.5303 7.20944 19.5584 7.22612 19.5756 7.23559C19.5928 7.2451 19.6292 7.26867 19.6564 7.28806C19.6837 7.30741 19.7086 7.32326 19.7118 7.32326C19.715 7.32326 19.7349 7.33644 19.7561 7.35254C19.7773 7.36869 19.8251 7.40472 19.8624 7.43271C19.9849 7.5246 20.1638 7.6783 20.2579 7.77236C20.4158 7.93023 20.6085 8.1704 20.7426 8.37644C20.7706 8.41945 20.8022 8.46737 20.8128 8.48289C20.8234 8.49845 20.8321 8.51584 20.8321 8.52155C20.8321 8.52727 20.8427 8.54758 20.8557 8.56664C20.891 8.6187 21.0123 8.86917 21.0616 8.99167C21.0742 9.0232 21.0935 9.06908 21.1043 9.09361C21.1152 9.11813 21.1243 9.14629 21.1245 9.15617C21.1246 9.16606 21.1338 9.19292 21.1449 9.21586C21.156 9.2388 21.1653 9.26695 21.1654 9.27843C21.1656 9.2899 21.1749 9.32743 21.1861 9.36185C21.2123 9.44289 21.2441 9.5734 21.2586 9.65903C21.2648 9.69632 21.2744 9.75029 21.2799 9.77895C21.2853 9.8076 21.2982 9.89678 21.3085 9.97707C21.326 10.1126 21.3277 10.2873 21.3326 12.4119L21.3379 14.7007L21.5412 14.7061C21.7334 14.7111 21.7477 14.7129 21.8035 14.7389C21.8825 14.7759 21.9396 14.8369 21.9729 14.92L22 14.9877L21.9999 15.3812C21.9999 15.7382 21.9979 15.7828 21.9791 15.8614C21.9676 15.9091 21.9583 15.9571 21.9583 15.9681C21.9583 15.9952 21.8972 16.13 21.8356 16.2388C21.8017 16.2987 21.6131 16.4871 21.5516 16.5223C21.4473 16.5823 21.3084 16.6455 21.2809 16.6455C21.2699 16.6455 21.2219 16.6548 21.1743 16.6662C21.0924 16.6859 21.0507 16.6871 20.4282 16.6871L19.7687 16.6872L19.7482 16.7263C19.7369 16.7478 19.7208 16.7794 19.7124 16.7967C19.6952 16.832 19.646 16.9173 19.6225 16.9524C19.6139 16.9653 19.5946 16.9942 19.5797 17.0167C19.5316 17.0888 19.4241 17.2195 19.3423 17.3053C19.2247 17.4286 19.0104 17.6056 18.9291 17.6468C18.9176 17.6526 18.8871 17.671 18.8613 17.6876C18.7903 17.7334 18.5782 17.837 18.5016 17.8632C18.4253 17.8894 18.394 17.9005 18.3449 17.9189C18.3162 17.9296 18.2829 17.9385 18.271 17.9385C18.2591 17.9385 18.2264 17.9458 18.1982 17.9547C18.1701 17.9636 18.0931 17.9781 18.0271 17.9869C17.9612 17.9958 17.8814 18.0069 17.8498 18.0116C17.776 18.0226 17.5692 18.0226 17.4953 18.0116C17.4638 18.0069 17.3804 17.9956 17.3101 17.9867C17.2397 17.9777 17.1735 17.9657 17.1628 17.96C17.1522 17.9543 17.1182 17.9452 17.0874 17.9397C17.0139 17.9268 16.8933 17.8849 16.7799 17.833C16.7563 17.8222 16.7319 17.8134 16.7256 17.8134C16.7094 17.8134 16.5509 17.7289 16.4265 17.6539C16.36 17.6137 16.1624 17.4579 16.079 17.3797C15.9019 17.2136 15.718 16.9732 15.6329 16.7967C15.6128 16.755 15.5945 16.7243 15.5776 16.704C15.5648 16.6886 15.2596 16.6872 11.9936 16.6872H8.42352L8.403 16.7263C8.3917 16.7478 8.37564 16.7794 8.36726 16.7967C8.35007 16.832 8.3009 16.9173 8.27737 16.9524C8.26878 16.9653 8.24947 16.9942 8.23449 17.0167C8.18649 17.0888 8.07896 17.2195 7.99716 17.3053C7.8795 17.4286 7.66528 17.6056 7.58394 17.6468C7.57247 17.6526 7.54198 17.671 7.51616 17.6876C7.44517 17.7334 7.23303 17.837 7.15641 17.8632C7.08013 17.8894 7.04884 17.9005 6.99979 17.9189C6.97101 17.9296 6.93773 17.9385 6.92584 17.9385C6.91399 17.9385 6.88121 17.9458 6.85306 17.9547C6.8249 17.9636 6.7479 17.9781 6.68196 17.9869C6.61602 17.9958 6.53623 18.0069 6.50469 18.0116C6.43433 18.0221 6.21589 18.0218 6.14494 18.0111ZM6.56204 17.3655C6.58498 17.3605 6.63191 17.3508 6.66632 17.3438C6.70073 17.3369 6.74999 17.3245 6.77581 17.3163C6.80163 17.308 6.84092 17.2967 6.86319 17.291C6.88546 17.2854 6.91345 17.274 6.92546 17.2655C6.93748 17.2572 6.95449 17.2503 6.96329 17.2503C6.98219 17.2503 7.15942 17.1614 7.18332 17.1399C7.19237 17.1318 7.20267 17.1251 7.20626 17.1251C7.2098 17.1251 7.23449 17.1099 7.26111 17.0913C7.28767 17.0726 7.31958 17.0516 7.33193 17.0447C7.37885 17.0183 7.59262 16.8066 7.64938 16.7303C7.72488 16.6289 7.756 16.5837 7.756 16.5754C7.756 16.5719 7.76267 16.5615 7.7708 16.5525C7.79224 16.5286 7.88113 16.3513 7.88113 16.3324C7.88113 16.3236 7.88801 16.3066 7.89643 16.2946C7.90482 16.2826 7.91629 16.2546 7.92188 16.2323C7.92751 16.2101 7.93885 16.1708 7.94711 16.145C7.95537 16.1191 7.9678 16.0699 7.97472 16.0355C7.98165 16.0011 7.99137 15.9541 7.99633 15.9312C8.00805 15.877 8.00805 15.5161 7.99633 15.462C7.99137 15.439 7.98186 15.3921 7.97518 15.3577C7.9336 15.1433 7.84108 14.9337 7.68888 14.7092C7.63525 14.63 7.3922 14.3867 7.31483 14.3347C7.15512 14.2274 6.90928 14.1012 6.86006 14.1012C6.84939 14.1012 6.82019 14.0919 6.7952 14.0805C6.77018 14.0692 6.7351 14.0598 6.71716 14.0597C6.69927 14.0595 6.66407 14.0517 6.63896 14.0422C6.60325 14.0287 6.54315 14.024 6.36275 14.0202C6.15333 14.0159 6.12421 14.0175 6.04534 14.0375C5.99758 14.0496 5.94649 14.0595 5.9318 14.0597C5.91712 14.0598 5.88467 14.0692 5.85965 14.0805C5.83466 14.0919 5.80546 14.1012 5.79479 14.1012C5.74899 14.1012 5.47174 14.2411 5.36809 14.3166C5.34227 14.3354 5.30707 14.3613 5.28989 14.3742C5.22799 14.4207 5.00642 14.6499 4.96613 14.7092C4.86106 14.8635 4.73201 15.1142 4.73201 15.1639C4.73201 15.1746 4.72275 15.2038 4.71137 15.2288C4.70006 15.2538 4.69064 15.2863 4.69051 15.3009C4.69039 15.3156 4.68042 15.3667 4.66836 15.4145C4.64838 15.4934 4.6468 15.5225 4.65109 15.7319C4.65477 15.9123 4.65956 15.9724 4.67308 16.0081C4.68254 16.0332 4.69039 16.0684 4.69051 16.0863C4.69064 16.1042 4.70006 16.1393 4.71137 16.1643C4.72275 16.1893 4.73201 16.2185 4.73201 16.2292C4.73201 16.2784 4.85831 16.5243 4.96559 16.684C5.01756 16.7613 5.26081 17.0044 5.33998 17.058C5.56355 17.2096 5.77406 17.3025 5.98853 17.3444C6.02294 17.3511 6.06753 17.3603 6.08759 17.3648C6.13777 17.3761 6.5107 17.3766 6.56204 17.3655ZM17.9072 17.3655C17.9301 17.3605 17.9771 17.3508 18.0115 17.3438C18.0459 17.3369 18.0951 17.3245 18.121 17.3163C18.1468 17.308 18.1861 17.2967 18.2083 17.291C18.2306 17.2854 18.2586 17.274 18.2706 17.2655C18.2826 17.2572 18.2996 17.2503 18.3084 17.2503C18.3273 17.2503 18.5046 17.1614 18.5285 17.1399C18.5375 17.1318 18.5478 17.1251 18.5514 17.1251C18.555 17.1251 18.5796 17.1099 18.6063 17.0913C18.6328 17.0726 18.6647 17.0516 18.6771 17.0447C18.724 17.0183 18.9377 16.8066 18.9945 16.7303C19.07 16.6289 19.1011 16.5837 19.1011 16.5754C19.1011 16.5719 19.1078 16.5615 19.116 16.5525C19.1374 16.5286 19.2263 16.3513 19.2263 16.3324C19.2263 16.3236 19.2332 16.3066 19.2415 16.2946C19.25 16.2826 19.2614 16.2546 19.267 16.2323C19.2727 16.2101 19.284 16.1708 19.2923 16.145C19.3005 16.1191 19.313 16.0699 19.3198 16.0355C19.3268 16.0011 19.3365 15.9541 19.3415 15.9312C19.3464 15.9082 19.3505 15.8027 19.3505 15.6966C19.3505 15.5905 19.3464 15.4849 19.3415 15.462C19.3365 15.439 19.327 15.3921 19.3203 15.3577C19.2787 15.1433 19.1862 14.9337 19.034 14.7092C18.9804 14.63 18.7374 14.3867 18.66 14.3347C18.5003 14.2274 18.2544 14.1012 18.2053 14.1012C18.1945 14.1012 18.1653 14.0919 18.1404 14.0805C18.1153 14.0692 18.0802 14.0598 18.0623 14.0597C18.0444 14.0595 18.0092 14.0517 17.9841 14.0422C17.9484 14.0287 17.8883 14.024 17.7079 14.0202C17.4985 14.0159 17.4694 14.0175 17.3905 14.0375C17.3427 14.0496 17.2916 14.0595 17.277 14.0597C17.2623 14.0598 17.2298 14.0692 17.2048 14.0805C17.1798 14.0919 17.1506 14.1012 17.1399 14.1012C17.0941 14.1012 16.8169 14.2411 16.7132 14.3166C16.6874 14.3354 16.6523 14.3613 16.635 14.3742C16.5731 14.4207 16.3516 14.6499 16.3113 14.7092C16.2062 14.8635 16.0772 15.1142 16.0772 15.1639C16.0772 15.1746 16.0679 15.2038 16.0565 15.2288C16.0452 15.2538 16.0358 15.2863 16.0357 15.3009C16.0355 15.3156 16.0256 15.3667 16.0135 15.4145C15.9935 15.4934 15.992 15.5225 15.9962 15.7319C16 15.9123 16.0047 15.9724 16.0182 16.0081C16.0277 16.0332 16.0355 16.0684 16.0357 16.0863C16.0358 16.1042 16.0452 16.1393 16.0565 16.1643C16.0679 16.1893 16.0772 16.2185 16.0772 16.2292C16.0772 16.2784 16.2034 16.5243 16.3107 16.684C16.3627 16.7613 16.606 17.0044 16.6852 17.058C16.9087 17.2096 17.1192 17.3025 17.3337 17.3444C17.3681 17.3511 17.4127 17.3603 17.4327 17.3648C17.4829 17.3761 17.8559 17.3766 17.9072 17.3655ZM4.02327 16.0247C4.03408 16.0116 4.03383 15.9945 4.02194 15.9334C4.01322 15.8887 4.0073 15.7926 4.0073 15.6966C4.0073 15.6005 4.01322 15.5044 4.02194 15.4597C4.03387 15.3983 4.03412 15.3815 4.02315 15.3684C4.01143 15.3543 3.96588 15.3525 3.6644 15.3549L3.31908 15.3577L3.31625 15.5671C3.31353 15.7709 3.31416 15.7781 3.33931 15.833C3.37076 15.9017 3.44972 15.9817 3.51846 16.0147C3.56663 16.0378 3.58111 16.0391 3.78966 16.0398C3.97581 16.0406 4.01201 16.0382 4.02327 16.0247ZM15.3684 16.0247C15.3792 16.0116 15.379 15.9945 15.3671 15.9334C15.3584 15.8887 15.3525 15.7926 15.3525 15.6966C15.3525 15.6005 15.3584 15.5044 15.3671 15.4597C15.379 15.3986 15.3792 15.3815 15.3684 15.3685C15.3565 15.3541 15.0058 15.3525 12 15.3525C8.99424 15.3525 8.6435 15.3541 8.63158 15.3685C8.62077 15.3815 8.62102 15.3986 8.63291 15.4597C8.64163 15.5044 8.64755 15.6005 8.64755 15.6966C8.64755 15.7926 8.64163 15.8887 8.63291 15.9334C8.62102 15.9945 8.62077 16.0116 8.63158 16.0247C8.6435 16.039 8.99424 16.0407 12 16.0407C15.0058 16.0407 15.3565 16.039 15.3684 16.0247ZM21.1463 16.015C21.2151 15.9835 21.2996 15.8974 21.3311 15.8269C21.3529 15.7778 21.3541 15.7628 21.3513 15.5662L21.3483 15.3577L20.6692 15.355C20.0675 15.3526 19.9887 15.3541 19.9768 15.3684C19.9659 15.3815 19.9661 15.3985 19.9781 15.4597C19.9868 15.5044 19.9927 15.6005 19.9927 15.6966C19.9927 15.7926 19.9868 15.8887 19.9781 15.9334C19.9662 15.9945 19.9659 16.0116 19.9767 16.0247C19.9884 16.0387 20.058 16.0407 20.5401 16.0407H21.0903L21.1463 16.015ZM4.23241 14.6892C4.24934 14.6688 4.26765 14.6381 4.28772 14.5965C4.40075 14.362 4.65668 14.0586 4.90407 13.8658C4.95992 13.8222 4.98707 13.803 5.07166 13.7466C5.14865 13.6954 5.36259 13.5798 5.38048 13.5798C5.38674 13.5798 5.41114 13.5709 5.4347 13.5602C5.5444 13.51 5.66828 13.4666 5.73685 13.4542C5.76476 13.4492 5.80934 13.4383 5.83591 13.43C5.86252 13.4216 5.93114 13.4119 5.9884 13.4083C6.04567 13.4047 6.09706 13.3972 6.10257 13.3917C6.13831 13.356 6.12096 13.3556 4.36913 13.3556H2.65172L2.64901 14.0177C2.64751 14.3819 2.64855 14.6857 2.6513 14.6929C2.65522 14.7032 2.82211 14.706 3.43741 14.706C4.14206 14.706 4.2199 14.7043 4.23241 14.6892ZM14.0073 14.0282V13.3556H10.2878C7.32609 13.3556 6.56563 13.3583 6.55529 13.3686C6.5313 13.3926 6.56117 13.403 6.67237 13.4096C6.73376 13.4133 6.80555 13.4245 6.83741 13.4354C6.8684 13.446 6.90586 13.4547 6.92063 13.4547C6.93539 13.4547 6.97101 13.4635 6.99979 13.4743C7.02857 13.4851 7.0674 13.4992 7.08605 13.5055C7.10465 13.512 7.13518 13.5225 7.15379 13.5289C7.23383 13.5565 7.44413 13.6591 7.51616 13.7055C7.54198 13.7221 7.57247 13.7405 7.58394 13.7463C7.62386 13.7665 7.7346 13.849 7.82582 13.9265C7.99153 14.0673 8.17339 14.2741 8.27203 14.4338C8.27771 14.443 8.2971 14.474 8.31516 14.5026C8.33322 14.5313 8.35575 14.5712 8.36521 14.5913C8.37468 14.6113 8.3917 14.6453 8.403 14.6669L8.42352 14.706L11.2154 14.7034L14.0073 14.7007V14.0282ZM15.5776 14.6892C15.5945 14.6688 15.6128 14.6381 15.6329 14.5965C15.7459 14.362 16.0018 14.0586 16.2492 13.8658C16.3051 13.8222 16.3322 13.803 16.4168 13.7466C16.4938 13.6954 16.7077 13.5798 16.7256 13.5798C16.7319 13.5798 16.7563 13.5709 16.7799 13.5602C16.8921 13.5088 17.0138 13.4664 17.0855 13.4537C17.1153 13.4484 17.1529 13.439 17.1689 13.4327C17.185 13.4265 17.2521 13.4143 17.318 13.4058C17.384 13.3972 17.4638 13.3863 17.4953 13.3816C17.5692 13.3705 17.7759 13.3705 17.8498 13.3816C17.8814 13.3863 17.9612 13.3973 18.0271 13.4059C18.0931 13.4145 18.1675 13.429 18.1927 13.4381C18.2178 13.4472 18.2505 13.4547 18.2654 13.4547C18.2804 13.4547 18.3162 13.4635 18.3449 13.4743C18.3737 13.4851 18.4126 13.4992 18.4312 13.5055C18.4498 13.512 18.4803 13.5225 18.4989 13.5289C18.579 13.5565 18.7893 13.6591 18.8613 13.7055C18.8871 13.7221 18.9176 13.7405 18.9291 13.7463C18.969 13.7665 19.0797 13.849 19.171 13.9265C19.3367 14.0673 19.5185 14.2741 19.6172 14.4338C19.6229 14.443 19.6423 14.474 19.6603 14.5026C19.6784 14.5313 19.7009 14.5712 19.7104 14.5913C19.7199 14.6113 19.7369 14.6454 19.7482 14.667L19.7688 14.7062L20.2249 14.7035L20.6809 14.7007V14.0282V13.3556L20.1126 13.3498C19.62 13.3449 19.5367 13.3417 19.487 13.3265C19.4554 13.3168 19.4192 13.3089 19.4064 13.3088C19.3937 13.3087 19.3608 13.2986 19.3334 13.2863C19.2245 13.2375 19.1734 13.2117 19.168 13.2029C19.1648 13.1978 19.1454 13.1866 19.1247 13.1779C19.0778 13.1583 18.8845 12.9651 18.8486 12.902C18.7874 12.7944 18.7258 12.6585 18.7258 12.6313C18.7258 12.6203 18.7164 12.5723 18.705 12.5246C18.6936 12.477 18.6842 12.4028 18.6842 12.3598C18.6842 12.3168 18.6936 12.2426 18.705 12.1949C18.7164 12.1472 18.7258 12.0992 18.7258 12.0883C18.7258 12.063 18.7572 11.9922 18.8449 11.8204C18.8709 11.7694 19.0843 11.556 19.1353 11.53C19.3121 11.4398 19.3779 11.4109 19.4064 11.4107C19.4192 11.4106 19.4554 11.4027 19.487 11.393C19.5367 11.3778 19.62 11.3747 20.1126 11.3697L20.6809 11.3639V11.025V10.6861L18.4442 10.6808C16.3662 10.6758 16.2034 10.6741 16.1502 10.6574C16.1186 10.6476 16.0824 10.6394 16.0696 10.6393C16.0392 10.6392 15.9082 10.5804 15.7956 10.5164C15.7349 10.4819 15.5462 10.2932 15.5117 10.2325C15.4478 10.12 15.389 9.989 15.3888 9.95855C15.3887 9.94579 15.3806 9.90954 15.3708 9.87801C15.3546 9.82566 15.3525 9.71246 15.3475 8.58499L15.342 7.34933H15.0031H14.6642L14.6616 11.0146C14.6601 13.0305 14.6611 14.6857 14.6639 14.6929C14.6677 14.7031 14.7679 14.706 15.1162 14.706C15.5144 14.706 15.5652 14.7041 15.5776 14.6892ZM3.99687 12.3598V12.0209H3.65798H3.31908L3.31633 12.3492C3.31479 12.5299 3.31583 12.6836 3.31867 12.6909C3.32267 12.7013 3.39541 12.7036 3.66031 12.7014L3.99687 12.6987V12.3598ZM6.48384 12.6882C6.49418 12.6758 6.49418 12.6694 6.48384 12.6569C6.47671 12.6484 6.46419 12.6413 6.45606 12.6413C6.44788 12.6413 6.41681 12.6233 6.38694 12.6013C6.35708 12.5792 6.32772 12.5593 6.32171 12.557C6.3157 12.5546 6.24296 12.5076 6.16008 12.4526C5.5517 12.0485 5.44517 11.9784 5.37777 11.9322C5.37301 11.9322 5.34736 11.917 5.32075 11.8984C5.29418 11.8797 5.26461 11.8597 5.25506 11.8538C5.24555 11.848 5.21714 11.8292 5.19195 11.8121C5.16676 11.795 5.1386 11.7762 5.12938 11.7704C5.12017 11.7646 5.09201 11.7458 5.06682 11.7287C5.04163 11.7116 5.01347 11.6928 5.00425 11.687C4.99504 11.6811 4.96684 11.6624 4.94161 11.6453C4.91637 11.6282 4.88822 11.6096 4.87904 11.604C4.80096 11.5562 4.71437 11.4971 4.70528 11.4854C4.69915 11.4775 4.68505 11.4729 4.67399 11.475C4.65435 11.4788 4.65372 11.4952 4.65109 12.0783C4.64959 12.4081 4.65064 12.6836 4.65339 12.6909C4.65731 12.7011 4.84922 12.7039 5.56463 12.7039C6.35741 12.7039 6.47249 12.7019 6.48384 12.6882ZM20.6809 12.3598V12.0209L20.1387 12.0179C19.5981 12.0151 19.5963 12.0151 19.5443 12.0382C19.4738 12.0695 19.3878 12.1539 19.3562 12.2229C19.32 12.3019 19.32 12.4176 19.3562 12.4967C19.3874 12.5649 19.4665 12.6449 19.5351 12.6779L19.586 12.7023L20.1335 12.7005L20.6809 12.6987V12.3598ZM8.46507 12.6454C8.51954 12.6371 8.63124 12.6258 8.71328 12.6202C8.79529 12.6145 8.88209 12.6052 8.90619 12.5994C8.93026 12.5936 9.01627 12.5844 9.09731 12.5789C9.17835 12.5734 9.26519 12.5642 9.29022 12.5583C9.31529 12.5525 9.40571 12.5428 9.49118 12.5368C9.57664 12.5309 9.66815 12.5211 9.69452 12.5152C9.72088 12.5093 9.80667 12.5001 9.88513 12.4949C9.96363 12.4896 10.0687 12.4781 10.1185 12.4694C10.1684 12.4607 10.2379 12.4536 10.273 12.4535C10.3081 12.4535 10.3814 12.4464 10.4359 12.4376C10.4903 12.429 10.6025 12.4172 10.6851 12.4115C10.7678 12.4058 10.8623 12.3942 10.8952 12.3857C10.9281 12.3772 10.9721 12.3702 10.9929 12.3702C11.0137 12.3702 11.0575 12.3608 11.0901 12.3493C11.1228 12.3379 11.159 12.3283 11.1706 12.3281C11.1823 12.3279 11.2106 12.3187 11.2336 12.3076C11.2565 12.2965 11.281 12.2873 11.288 12.2871C11.2999 12.2868 11.4899 12.1961 11.536 12.1688C11.7475 12.0434 11.9432 11.8605 12.0848 11.6559C12.1353 11.583 12.219 11.4354 12.2191 11.4192C12.2191 11.4117 12.2284 11.3916 12.2398 11.3744C12.2512 11.3571 12.2606 11.3367 12.2606 11.329C12.2606 11.3213 12.2677 11.3002 12.2762 11.2821C12.2918 11.2494 12.3111 11.1875 12.3336 11.098C12.3402 11.0722 12.3546 11.023 12.3657 10.9885C12.3768 10.9541 12.3858 10.9156 12.3858 10.9029C12.3858 10.8902 12.3952 10.856 12.4067 10.8269C12.4181 10.7978 12.4276 10.7613 12.4276 10.7457C12.4276 10.7301 12.4347 10.7039 12.4433 10.6874C12.452 10.6708 12.4618 10.638 12.4652 10.6144C12.4685 10.5908 12.4802 10.5466 12.4911 10.5163C12.502 10.486 12.5109 10.4516 12.5109 10.4401C12.5109 10.4209 12.5191 10.3919 12.5711 10.2273C12.5801 10.1987 12.591 10.1541 12.5953 10.1283C12.5996 10.1025 12.6099 10.0602 12.6183 10.0344C12.6361 9.97974 12.6531 9.91672 12.6719 9.8363C12.6793 9.80477 12.6927 9.75546 12.7017 9.72681C12.7107 9.69815 12.7231 9.65473 12.7292 9.63033C12.757 9.52001 12.764 9.49323 12.7821 9.42962C12.8684 9.12527 12.896 8.85853 12.8603 8.67192C12.8517 8.627 12.8446 8.57486 12.8446 8.55605C12.8446 8.53728 12.8352 8.49523 12.8238 8.46258C12.8123 8.42996 12.8028 8.39367 12.8025 8.38203C12.8024 8.37035 12.7932 8.34203 12.7821 8.31909C12.771 8.29615 12.7618 8.27104 12.7616 8.26324C12.7613 8.25073 12.6752 8.07154 12.6431 8.01653C12.5603 7.87463 12.446 7.7339 12.313 7.61002C12.2823 7.58137 12.2467 7.55083 12.234 7.54224C12.2213 7.53365 12.1787 7.5022 12.1394 7.47238C12.1 7.4426 12.0428 7.40034 12.0122 7.37853C11.9816 7.35676 11.9218 7.31192 11.8794 7.27897C11.8369 7.24597 11.8002 7.21899 11.7977 7.21899C11.7953 7.21899 11.7518 7.18871 11.7011 7.15167C11.6504 7.11463 11.5839 7.06654 11.5534 7.04476C11.5228 7.02303 11.463 6.97824 11.4206 6.94529C11.3781 6.91229 11.3414 6.88531 11.3389 6.88531C11.3365 6.88531 11.293 6.85503 11.2423 6.81799C11.1916 6.78095 11.116 6.72585 11.0742 6.69544C11.0324 6.66508 10.9736 6.62149 10.9436 6.59855C10.9135 6.57561 10.8813 6.55213 10.8719 6.54641C10.8475 6.53144 10.5487 6.31434 10.4843 6.26487C10.4545 6.24193 10.4224 6.21845 10.4131 6.21273C10.4038 6.20702 10.3296 6.15304 10.2482 6.09282C10.1668 6.03259 10.0925 5.97861 10.0832 5.9729C10.0739 5.96718 10.0411 5.94253 10.0103 5.91813C9.97952 5.89377 9.94519 5.87384 9.93401 5.87384C9.91132 5.87384 9.8747 5.94654 9.86574 6.00939C9.86286 6.02946 9.85185 6.07405 9.84125 6.10846C9.8307 6.14287 9.81735 6.18979 9.8116 6.21273C9.78695 6.31146 9.77623 6.35221 9.75808 6.41607C9.74749 6.45336 9.73347 6.50495 9.72692 6.53077C9.72033 6.55659 9.71016 6.59646 9.70428 6.61941C9.69839 6.64235 9.68459 6.68927 9.67358 6.72368C9.66257 6.75809 9.6536 6.79797 9.65364 6.81231C9.65364 6.82666 9.64667 6.85177 9.63816 6.86816C9.62961 6.88451 9.6181 6.92606 9.61256 6.96043C9.60701 6.9948 9.59783 7.02858 9.59212 7.03546C9.5864 7.04235 9.57873 7.06883 9.57502 7.09436C9.57134 7.11993 9.55942 7.1656 9.54849 7.19592C9.5376 7.22625 9.52868 7.26283 9.52868 7.27726C9.52868 7.29165 9.52204 7.3163 9.51395 7.33194C9.50582 7.34762 9.49606 7.37911 9.49222 7.40185C9.48838 7.42458 9.47654 7.47133 9.46594 7.50575C9.44588 7.57077 9.43224 7.6222 9.40926 7.71951C9.40179 7.75104 9.38865 7.80034 9.38006 7.829C9.37143 7.85765 9.3595 7.89991 9.35349 7.92285C9.32651 8.02612 9.30507 8.06775 9.25193 8.11984C9.20038 8.1704 9.16805 8.18712 9.07737 8.21023C9.01076 8.22721 8.89756 8.19242 8.82615 8.13307C8.72476 8.04877 8.69034 7.91083 8.73497 7.76718C8.75391 7.70616 8.76509 7.66575 8.78911 7.57094C8.79533 7.54654 8.80901 7.49611 8.8196 7.45882C8.8302 7.42153 8.84359 7.37227 8.84939 7.34933C8.878 7.23613 8.88521 7.20877 8.90302 7.146C8.91362 7.10871 8.9273 7.05828 8.93351 7.03388C8.93969 7.00952 8.94978 6.96965 8.95595 6.94529C8.96217 6.92089 8.97585 6.87046 8.98644 6.83317C8.99704 6.79588 9.01105 6.74429 9.0176 6.71847C9.02419 6.69265 9.03437 6.65277 9.04025 6.62983C9.04613 6.60689 9.05994 6.55997 9.07095 6.52556C9.08196 6.49115 9.09093 6.45127 9.09089 6.43692C9.09089 6.42258 9.09785 6.39747 9.10636 6.38107C9.11491 6.36472 9.12642 6.32318 9.13197 6.28881C9.13752 6.25444 9.14649 6.22091 9.15195 6.21428C9.15741 6.20768 9.16484 6.18353 9.16847 6.16059C9.17214 6.13765 9.18403 6.08839 9.19483 6.0511C9.21864 5.96931 9.25055 5.8544 9.2672 5.79042C9.27395 5.7646 9.28446 5.72589 9.29064 5.70437C9.31287 5.62658 9.35237 5.63063 8.64263 5.6383C8.29548 5.64205 7.73931 5.65006 7.40667 5.65607C7.07404 5.66207 6.15904 5.6705 5.37331 5.67475C4.06753 5.68185 3.94202 5.68397 3.91345 5.69991C3.89623 5.70946 3.87654 5.71734 3.86966 5.71738C3.84751 5.71747 3.76446 5.77945 3.73281 5.81941C3.69656 5.86524 3.64755 5.97699 3.64755 6.0139C3.64755 6.02821 3.63816 6.0637 3.62669 6.09282C3.61522 6.12193 3.6058 6.15847 3.60576 6.17402C3.60576 6.18958 3.59867 6.21582 3.59003 6.23234C3.5814 6.24889 3.5716 6.28172 3.56822 6.30533C3.56484 6.32898 3.55316 6.37311 3.54223 6.40343C3.53135 6.43375 3.52242 6.46896 3.52242 6.48164C3.52242 6.49432 3.51303 6.52939 3.50156 6.55955C3.49009 6.58971 3.48067 6.62729 3.48063 6.64297C3.48063 6.6587 3.47362 6.68493 3.46507 6.70132C3.45652 6.71767 3.44501 6.75922 3.43946 6.79359C3.43391 6.82796 3.42494 6.86149 3.41948 6.86812C3.41406 6.87471 3.40638 6.89886 3.40246 6.9218C3.39854 6.94474 3.38694 6.99167 3.37664 7.02608C3.35846 7.08698 3.34436 7.13895 3.32279 7.2242C3.317 7.24714 3.30361 7.2964 3.29301 7.33369C3.28242 7.37098 3.26903 7.42024 3.26323 7.44318C3.23462 7.55638 3.2274 7.58374 3.20959 7.64652C3.199 7.68381 3.18561 7.73307 3.17981 7.75601C3.1512 7.86921 3.14398 7.89657 3.12617 7.95934C3.11558 7.99663 3.1019 8.04706 3.09572 8.07146C3.0674 8.18299 3.0604 8.20831 3.04167 8.26695C3.0307 8.30137 3.02169 8.34124 3.02173 8.35559C3.02173 8.36994 3.01481 8.39505 3.00626 8.41144C2.99771 8.42779 2.98619 8.46933 2.98065 8.5037C2.9751 8.53807 2.96592 8.57186 2.96021 8.5787C2.95454 8.58558 2.94528 8.61678 2.93969 8.64806C2.93414 8.67934 2.92275 8.72602 2.91441 8.75183C2.89973 8.79747 2.88776 8.84068 2.86465 8.93169C2.85848 8.95609 2.8448 9.00652 2.8342 9.04381C2.77731 9.24426 2.7741 9.27738 2.80259 9.3661C2.83666 9.47208 2.88713 9.52264 3.09785 9.66195C3.43733 9.88643 3.52742 9.94579 3.54428 9.95621C3.55353 9.96193 3.58177 9.98061 3.60697 9.99772C3.63216 10.0148 3.66056 10.0336 3.67011 10.0394C3.67962 10.0453 3.7092 10.0653 3.73577 10.084C3.76238 10.1026 3.78649 10.1178 3.78928 10.1178C3.79212 10.1178 3.81885 10.1359 3.84872 10.1579C3.87858 10.1799 3.90782 10.1998 3.91374 10.2022C3.92459 10.2066 3.998 10.2548 4.46578 10.5654C4.60897 10.6605 4.73097 10.7406 4.73689 10.7435C4.74282 10.7464 4.76826 10.7628 4.79345 10.78C4.81864 10.7972 4.8468 10.8161 4.85602 10.8219C4.86523 10.8277 4.89339 10.8465 4.91858 10.8636C4.94377 10.8807 4.97201 10.8994 4.98127 10.9051C4.99057 10.9108 5.0521 10.9511 5.11796 10.9946C5.25685 11.0862 5.35579 11.151 5.37965 11.1658C5.38886 11.1715 5.41702 11.1902 5.44221 11.2073C5.4674 11.2244 5.49556 11.2432 5.50478 11.249C5.51399 11.2549 5.54215 11.2736 5.56734 11.2907C5.59253 11.3078 5.62094 11.3266 5.63045 11.3324C5.64 11.3383 5.66957 11.3583 5.69614 11.377C5.72275 11.3956 5.74686 11.4109 5.74966 11.4109C5.75249 11.4109 5.78019 11.4296 5.81126 11.4526C5.84234 11.4755 5.86999 11.4943 5.87274 11.4943C5.87554 11.4943 5.91912 11.5218 5.96964 11.5554C6.39195 11.8365 6.6264 11.9906 6.69314 12.0365C6.69789 12.0365 6.72355 12.0518 6.75016 12.0704C6.77673 12.089 6.8063 12.1091 6.81581 12.1149C6.82536 12.1208 6.85377 12.1395 6.87896 12.1566C6.90415 12.1737 6.9323 12.1925 6.94152 12.1983C6.95074 12.2042 6.9789 12.223 7.00409 12.2401C7.02928 12.2572 7.05744 12.2758 7.06665 12.2816C7.07587 12.2873 7.11157 12.3103 7.14599 12.3327C7.1804 12.3551 7.24138 12.3948 7.28154 12.4209C7.32171 12.447 7.37205 12.4818 7.39345 12.4982C7.41485 12.5146 7.43721 12.5251 7.44313 12.5214C7.46086 12.5105 7.4931 12.4399 7.50052 12.3958C7.50432 12.3731 7.51616 12.3264 7.52676 12.292C7.54682 12.227 7.56046 12.1755 7.58344 12.0782C7.59091 12.0467 7.60405 11.9974 7.61264 11.9687C7.62841 11.9163 7.64213 11.8657 7.66294 11.7837C7.66916 11.7593 7.68284 11.7088 7.69343 11.6715C7.70403 11.6343 7.71771 11.5838 7.72392 11.5594C7.73009 11.5351 7.74019 11.4952 7.74636 11.4708C7.75258 11.4464 7.76626 11.396 7.77685 11.3587C7.78745 11.3214 7.80083 11.2722 7.80663 11.2492C7.83525 11.136 7.84246 11.1087 7.86027 11.0459C7.87087 11.0086 7.88455 10.9582 7.89076 10.9338C7.94661 10.7135 7.97351 10.6381 8.01381 10.5888C8.03416 10.564 8.05835 10.5408 8.06761 10.5374C8.07687 10.5339 8.09777 10.5214 8.11399 10.5096C8.13952 10.491 8.15883 10.488 8.25502 10.488C8.36284 10.488 8.36822 10.4891 8.41898 10.5217C8.48417 10.5635 8.50732 10.5886 8.54202 10.6548C8.56542 10.6994 8.56934 10.7199 8.56934 10.7978C8.56934 10.8641 8.56371 10.903 8.54849 10.9416C8.53702 10.9707 8.52763 11.0059 8.52763 11.0198C8.52763 11.0338 8.51825 11.0689 8.50678 11.098C8.49531 11.1271 8.48588 11.1637 8.48588 11.1792C8.48584 11.1948 8.47879 11.2209 8.47028 11.2373C8.46173 11.2536 8.45039 11.2936 8.44505 11.3259C8.43975 11.3583 8.42799 11.4022 8.41894 11.4236C8.40989 11.4449 8.4025 11.473 8.4025 11.4861C8.4025 11.4992 8.39312 11.5346 8.38165 11.5648C8.37018 11.5949 8.36075 11.6325 8.36075 11.6482C8.36071 11.6639 8.35366 11.6901 8.34515 11.7065C8.3366 11.7229 8.32509 11.7644 8.31954 11.7988C8.31399 11.8332 8.30482 11.867 8.2991 11.8738C8.29343 11.8807 8.28417 11.9119 8.27862 11.9432C8.27303 11.9744 8.26165 12.0211 8.25331 12.0469C8.23862 12.0926 8.22665 12.1358 8.20359 12.2268C8.19737 12.2512 8.18369 12.3016 8.1731 12.3389C8.12321 12.5146 8.0966 12.638 8.10428 12.6579C8.10949 12.6715 8.12901 12.6729 8.23816 12.6671C8.30849 12.6634 8.41059 12.6536 8.46507 12.6454ZM3.99975 11.1956L4.00259 11.0273L3.89026 10.9535C3.82845 10.9128 3.75679 10.8653 3.73097 10.8478C3.50686 10.6959 3.34936 10.5972 3.3356 10.5998C3.32096 10.6026 3.31875 10.6451 3.31633 10.973C3.31483 11.1765 3.31587 11.3489 3.31867 11.3562C3.32267 11.3666 3.39595 11.3689 3.66031 11.3667L3.99687 11.3639L3.99975 11.1956ZM19.3517 9.65903C19.3569 9.31267 19.3587 9.28552 19.3793 9.23672C19.4121 9.15893 19.4908 9.08539 19.5717 9.05682C19.6576 9.02654 19.7009 9.02725 19.7839 9.06049C19.8669 9.09373 19.9279 9.15079 19.965 9.22987L19.9927 9.28885L19.9979 9.65903L20.0031 10.0292L20.3216 10.032C20.5681 10.0341 20.6442 10.0317 20.6584 10.0213C20.6755 10.0088 20.6756 10.0038 20.6606 9.946C20.6517 9.91192 20.6444 9.86729 20.6444 9.84681C20.6444 9.82633 20.6373 9.78391 20.6287 9.75254C20.6201 9.72118 20.6087 9.67159 20.6034 9.64239C20.5982 9.61315 20.5865 9.57152 20.5774 9.54987C20.5684 9.52823 20.5608 9.50053 20.5606 9.48831C20.5605 9.47613 20.5512 9.44735 20.5401 9.42441C20.5291 9.40147 20.5198 9.37461 20.5197 9.36472C20.5195 9.35484 20.5104 9.32668 20.4995 9.30216C20.4887 9.27763 20.4691 9.23175 20.456 9.20022C20.4115 9.09294 20.3128 8.8974 20.2691 8.83004C20.2579 8.81282 20.2391 8.78233 20.2273 8.76226C20.0917 8.53136 19.8005 8.2036 19.5584 8.00931C19.4614 7.93148 19.2435 7.77945 19.2005 7.75963C19.1889 7.75425 19.1559 7.73632 19.1272 7.71972C19.0573 7.67922 18.9911 7.64718 18.8274 7.57478C18.803 7.56397 18.7607 7.5452 18.7333 7.53307C18.7059 7.52089 18.6742 7.51096 18.6629 7.51096C18.6516 7.51096 18.6247 7.50157 18.6033 7.4901C18.5819 7.47863 18.5536 7.46925 18.5403 7.46925C18.527 7.46925 18.5016 7.4617 18.4838 7.45248C18.4659 7.44326 18.4274 7.43209 18.3982 7.42771C18.3691 7.42328 18.3147 7.41223 18.2774 7.40318C18.2143 7.38787 18.1726 7.38061 17.9958 7.35405C17.9545 7.34783 17.5525 7.34495 16.9635 7.34662L15.999 7.34933L15.9963 8.56018L15.9937 9.77102L16.0194 9.82712C16.0506 9.89544 16.1297 9.97549 16.1983 10.0084L16.2492 10.0328L17.7977 10.031L19.3462 10.0292L19.3517 9.65903Z" fill="currentColor" stroke="currentColor" style="fill:currentColor;fill-opacity:1;stroke:currentColor;stroke-opacity:1;" stroke-width="0.208551"/>
<path d="M6.21842 16.6757C6.18976 16.6711 6.14989 16.6623 6.12987 16.6562C6.10984 16.65 6.07931 16.6449 6.06209 16.6449C6.04482 16.6448 6.01662 16.6355 5.99944 16.6241C5.98225 16.6127 5.95877 16.6032 5.9473 16.6029C5.93583 16.6027 5.90063 16.5864 5.86909 16.5667C5.83756 16.5471 5.79752 16.5245 5.78008 16.5165C5.72878 16.4929 5.57629 16.3411 5.51714 16.2548C5.48707 16.2109 5.46242 16.17 5.46242 16.1639C5.46242 16.1579 5.45304 16.141 5.44156 16.1264C5.43009 16.1119 5.42071 16.091 5.42071 16.0801C5.42071 16.0691 5.41133 16.0418 5.39985 16.0193C5.38838 15.9968 5.379 15.9707 5.379 15.9612C5.379 15.9518 5.36911 15.9035 5.35706 15.8539C5.31552 15.6837 5.35034 15.4545 5.4487 15.2507C5.46309 15.2208 5.48148 15.1909 5.48953 15.1842C5.49758 15.1776 5.50421 15.1669 5.5043 15.1604C5.5048 15.1231 5.75497 14.873 5.79222 14.8725C5.79869 14.8724 5.80945 14.8657 5.81612 14.8577C5.82275 14.8496 5.85266 14.8313 5.88257 14.8169C6.08636 14.7185 6.31552 14.6837 6.48574 14.7252C6.53529 14.7373 6.58355 14.7472 6.59306 14.7472C6.60252 14.7472 6.62868 14.7565 6.65116 14.768C6.67364 14.7795 6.70096 14.7889 6.71189 14.7889C6.72282 14.7889 6.74371 14.7983 6.75827 14.8097C6.77287 14.8212 6.78972 14.8306 6.79577 14.8306C6.80181 14.8306 6.84269 14.8552 6.88665 14.8853C6.97295 14.9445 7.12474 15.0969 7.1483 15.1482C7.15631 15.1657 7.17892 15.2057 7.19856 15.2373C7.21821 15.2688 7.23452 15.304 7.23477 15.3155C7.23502 15.3269 7.24457 15.3504 7.25595 15.3676C7.26734 15.3848 7.27668 15.4134 7.27673 15.4311C7.27677 15.4489 7.28382 15.4864 7.29241 15.5145C7.30096 15.5427 7.31089 15.6103 7.31447 15.6648C7.31977 15.7457 7.31689 15.7807 7.29887 15.8559C7.28674 15.9065 7.27681 15.9568 7.27681 15.9677C7.27681 15.9948 7.21491 16.1313 7.15397 16.2383C7.12215 16.2942 6.94684 16.472 6.88056 16.5156C6.80824 16.5631 6.63034 16.645 6.5994 16.645C6.58847 16.645 6.54046 16.6543 6.49278 16.6657C6.40386 16.6871 6.31039 16.6905 6.21842 16.6757ZM6.46392 16.0149C6.53533 15.9817 6.61424 15.9031 6.64636 15.833C6.66659 15.7887 6.67201 15.7599 6.67201 15.6959C6.67201 15.5953 6.64411 15.5285 6.57107 15.4543C6.49925 15.3814 6.42939 15.352 6.3279 15.352C6.22642 15.352 6.15656 15.3814 6.08473 15.4543C6.0117 15.5285 5.9838 15.5953 5.9838 15.6959C5.9838 15.7976 6.01312 15.8673 6.08628 15.9394C6.16173 16.0136 6.2205 16.0383 6.32428 16.0393C6.39347 16.04 6.41942 16.0355 6.46392 16.0149Z" fill="currentColor" stroke="currentColor" style="fill:currentColor;fill-opacity:1;stroke:currentColor;stroke-opacity:1;" stroke-width="0.0417101"/>
<path d="M17.5622 16.6757C17.5335 16.6711 17.4936 16.6623 17.4736 16.6562C17.4536 16.65 17.4231 16.6449 17.4058 16.6449C17.3886 16.6448 17.3604 16.6355 17.3432 16.6241C17.326 16.6127 17.3025 16.6032 17.2911 16.6029C17.2796 16.6027 17.2444 16.5864 17.2128 16.5667C17.1813 16.5471 17.1413 16.5245 17.1238 16.5165C17.0725 16.4929 16.92 16.3411 16.8609 16.2548C16.8308 16.2109 16.8062 16.17 16.8062 16.1639C16.8062 16.1579 16.7968 16.141 16.7853 16.1264C16.7738 16.1119 16.7645 16.091 16.7645 16.0801C16.7645 16.0691 16.7551 16.0418 16.7436 16.0193C16.7321 15.9968 16.7227 15.9707 16.7227 15.9612C16.7227 15.9518 16.7129 15.9035 16.7008 15.8539C16.6593 15.6837 16.6941 15.4545 16.7924 15.2507C16.8069 15.2208 16.8252 15.1909 16.8333 15.1842C16.8413 15.1776 16.848 15.1669 16.848 15.1604C16.8485 15.1231 17.0987 14.873 17.136 14.8725C17.1424 14.8724 17.1532 14.8657 17.1598 14.8577C17.1665 14.8496 17.1964 14.8313 17.2263 14.8169C17.4301 14.7185 17.6593 14.6837 17.8295 14.7252C17.879 14.7373 17.9273 14.7472 17.9368 14.7472C17.9463 14.7472 17.9724 14.7565 17.9949 14.768C18.0174 14.7795 18.0447 14.7889 18.0556 14.7889C18.0666 14.7889 18.0875 14.7983 18.102 14.8097C18.1166 14.8212 18.1335 14.8306 18.1395 14.8306C18.1456 14.8306 18.1864 14.8552 18.2304 14.8853C18.3167 14.9445 18.4685 15.0969 18.4921 15.1482C18.5001 15.1657 18.5227 15.2057 18.5423 15.2373C18.562 15.2688 18.5783 15.304 18.5785 15.3155C18.5788 15.3269 18.5883 15.3504 18.5997 15.3676C18.6111 15.3848 18.6204 15.4134 18.6205 15.4311C18.6205 15.4489 18.6276 15.4864 18.6362 15.5145C18.6447 15.5427 18.6546 15.6103 18.6582 15.6648C18.6635 15.7457 18.6606 15.7807 18.6426 15.8559C18.6305 15.9065 18.6206 15.9568 18.6206 15.9677C18.6206 15.9948 18.5586 16.1313 18.4977 16.2383C18.4659 16.2942 18.2906 16.472 18.2243 16.5156C18.1519 16.5631 17.9741 16.645 17.9431 16.645C17.9322 16.645 17.8842 16.6543 17.8365 16.6657C17.7476 16.6871 17.6541 16.6905 17.5622 16.6757ZM17.8077 16.0149C17.8791 15.9817 17.958 15.9031 17.9901 15.833C18.0103 15.7887 18.0158 15.7599 18.0158 15.6959C18.0158 15.5953 17.9879 15.5285 17.9148 15.4543C17.843 15.3814 17.7731 15.352 17.6717 15.352C17.5702 15.352 17.5003 15.3814 17.4285 15.4543C17.3555 15.5285 17.3275 15.5953 17.3275 15.6959C17.3275 15.7976 17.3569 15.8673 17.43 15.9394C17.5054 16.0136 17.5643 16.0383 17.668 16.0393C17.7372 16.04 17.7632 16.0355 17.8077 16.0149Z" fill="currentColor" stroke="currentColor" style="fill:currentColor;fill-opacity:1;stroke:currentColor;stroke-opacity:1;" stroke-width="0.0417101"/>
<path d="M15.8889 11.9878C15.8019 11.9522 15.741 11.8906 15.7056 11.8023C15.6721 11.7186 15.6713 11.6755 15.7017 11.5895C15.734 11.498 15.8071 11.4249 15.8986 11.3926C15.9627 11.3699 15.9778 11.3691 16.3377 11.3691H16.7104L16.7787 11.3965C16.8686 11.4325 16.9288 11.4926 16.9648 11.5825C16.9992 11.6686 16.9992 11.7162 16.9648 11.8023C16.9288 11.8921 16.8686 11.9523 16.7787 11.9883L16.7104 12.0156L16.3325 12.0151L15.9546 12.0146L15.8889 11.9878Z" fill="currentColor" stroke="currentColor" style="fill:currentColor;fill-opacity:1;stroke:currentColor;stroke-opacity:1;" stroke-width="0.0417101"/>
<path d="M8.48201 9.80063C8.38741 9.76552 8.30416 9.66345 8.29223 9.56802C8.2833 9.49632 8.2936 9.39988 8.3188 9.32005C8.32964 9.28564 8.34386 9.23638 8.35041 9.21056C8.38336 9.08038 8.39709 9.04543 8.43216 9.00201C8.48468 8.93703 8.50332 8.92301 8.57039 8.89836C8.63 8.87642 8.75066 8.86858 8.76138 8.88597C8.76447 8.89094 8.7819 8.89803 8.80009 8.90166C8.84434 8.91054 8.91859 8.97281 8.95542 9.03192C9.00418 9.11029 9.00693 9.25056 8.96243 9.38783C8.9477 9.43325 8.93844 9.46691 8.90829 9.58437C8.9004 9.61503 8.8866 9.64823 8.87763 9.65815C8.86866 9.66808 8.86128 9.6808 8.86128 9.68639C8.86128 9.70103 8.80046 9.7558 8.75216 9.78466C8.71842 9.80485 8.6936 9.80994 8.61661 9.81252C8.55333 9.81461 8.50912 9.81073 8.48201 9.80063Z" fill="currentColor" stroke="currentColor" style="fill:currentColor;fill-opacity:1;stroke:currentColor;stroke-opacity:1;" stroke-width="0.0417101"/>
</svg>
